<svg width="1728" height="776" viewBox="0 0 1728 776" fill="none" xmlns="http://www.w3.org/2000/svg">
<g style="mix-blend-mode:soft-light">
<path d="M-11 -14.4999L-11 833.5M34 -14.4999L34 833.5M79 -14.4999L79 833.5M124 -14.4999L124 833.5M169 -14.4999L169 833.5M214 -14.4999L214 833.5M259 -14.4999L259 833.5M304 -14.4999L304 833.5M349 -14.4999L349 833.5M394 -14.4999L394 833.5M439 -14.4999L439 833.5M484 -14.4999L484 833.5M529 -14.4999L529 833.5M574 -14.4999L574 833.5M619 -14.4999L619 833.5M664 -14.4999L664 833.5M709 -14.4999L709 833.5M754 -14.4999L754 833.5M799 -14.4999L799 833.5M844 -14.4999L844 833.5M1756.5 -18.9999L-4.49996 -19M1756.5 26.0001L-4.49996 26M1756.5 71.0001L-4.49996 71M1752.5 118L-8.49996 118M1752.5 163L-8.49996 163M1752.5 208L-8.49996 208M1752.5 253L-8.49996 253M1752.5 298L-8.49996 298M1752.5 343L-8.49996 343M1756.5 386L-4.49996 386M1756.5 431L-4.49996 431M1756.5 476L-4.49996 476M1756.5 521L-4.49996 521M1756.5 566L-4.49996 566M1756.5 611L-4.49996 611M1756.5 656L-4.49996 656M1756.5 701L-4.49996 701M1756.5 746L-4.49996 746M1756.5 791L-4.49996 791M1756.5 836L-4.49996 836M889 -14.4999L889 833.5M934 -14.4999L934 833.5M979 -14.4999L979 833.5M1024 -14.4999V833.5M1069 -14.4999V833.5M1114 -14.4999V833.5M1159 -14.4999V833.5M1204 -14.4999V833.5M1249 -14.4999V833.5M1294 -14.4999V833.5M1339 -14.4999V833.5M1384 -14.4999V833.5M1429 -14.4999V833.5M1474 -14.4999V833.5M1519 -14.4999V833.5M1564 -14.4999V833.5M1609 -14.4999V833.5M1654 -14.4999V833.5M1699 -14.4999V833.5" stroke="white" stroke-opacity="0.41"/>
<path d="M-11 -14.4999L-11 833.5M34 -14.4999L34 833.5M79 -14.4999L79 833.5M124 -14.4999L124 833.5M169 -14.4999L169 833.5M214 -14.4999L214 833.5M259 -14.4999L259 833.5M304 -14.4999L304 833.5M349 -14.4999L349 833.5M394 -14.4999L394 833.5M439 -14.4999L439 833.5M484 -14.4999L484 833.5M529 -14.4999L529 833.5M574 -14.4999L574 833.5M619 -14.4999L619 833.5M664 -14.4999L664 833.5M709 -14.4999L709 833.5M754 -14.4999L754 833.5M799 -14.4999L799 833.5M844 -14.4999L844 833.5M1756.5 -18.9999L-4.49996 -19M1756.5 26.0001L-4.49996 26M1756.5 71.0001L-4.49996 71M1752.5 118L-8.49996 118M1752.5 163L-8.49996 163M1752.5 208L-8.49996 208M1752.5 253L-8.49996 253M1752.5 298L-8.49996 298M1752.5 343L-8.49996 343M1756.5 386L-4.49996 386M1756.5 431L-4.49996 431M1756.5 476L-4.49996 476M1756.5 521L-4.49996 521M1756.5 566L-4.49996 566M1756.5 611L-4.49996 611M1756.5 656L-4.49996 656M1756.5 701L-4.49996 701M1756.5 746L-4.49996 746M1756.5 791L-4.49996 791M1756.5 836L-4.49996 836M889 -14.4999L889 833.5M934 -14.4999L934 833.5M979 -14.4999L979 833.5M1024 -14.4999V833.5M1069 -14.4999V833.5M1114 -14.4999V833.5M1159 -14.4999V833.5M1204 -14.4999V833.5M1249 -14.4999V833.5M1294 -14.4999V833.5M1339 -14.4999V833.5M1384 -14.4999V833.5M1429 -14.4999V833.5M1474 -14.4999V833.5M1519 -14.4999V833.5M1564 -14.4999V833.5M1609 -14.4999V833.5M1654 -14.4999V833.5M1699 -14.4999V833.5" stroke="url(#paint0_radial_75_3)" stroke-opacity="0.2"/>
</g>
<defs>
<radialGradient id="paint0_radial_75_3" cx="0" cy="0" r="1" gradientUnits="userSpaceOnUse" gradientTransform="translate(93 144) rotate(20.0068) scale(1654.34 3419.93)">
<stop/>
<stop offset="0.467977" stop-color="#9E9E9E" stop-opacity="0.467977"/>
<stop offset="1"/>
</radialGradient>
</defs>
</svg>
